HIERARCHY
ROOT Hips
{
	OFFSET 0.000000 0.000000 0.000000
	CHANNELS 6 Xposition Yposition Zposition Zrotation Yrotation Xrotation 
	JOINT LHipJoint
	{
		OFFSET 0.000000 0.000000 0.000000
		CHANNELS 3 Zrotation Yrotation Xrotation
		JOINT LeftUpLeg
		{
			OFFSET 1.363060 -1.794630 0.839290
			CHANNELS 3 Zrotation Yrotation Xrotation
			JOINT LeftLeg
			{
				OFFSET 2.448110 -6.726130 0.000000
				CHANNELS 3 Zrotation Yrotation Xrotation
				JOINT LeftFoot
				{
					OFFSET 2.562200 -7.039590 0.000000
					CHANNELS 3 Zrotation Yrotation Xrotation
					JOINT LeftToeBase
					{
						OFFSET 0.157640 -0.433110 2.322550
						CHANNELS 3 Zrotation Yrotation Xrotation
						End Site
						{
							OFFSET 0.000000 0.000000 0.000000
						}
					}
				}
			}
		}
	}
	JOINT RHipJoint
	{
		OFFSET 0.000000 0.000000 0.000000
		CHANNELS 3 Zrotation Yrotation Xrotation
		JOINT RightUpLeg
		{
			OFFSET -1.305520 -1.794630 0.839290
			CHANNELS 3 Zrotation Yrotation Xrotation
			JOINT RightLeg
			{
				OFFSET -2.542530 -6.985550 0.000000
				CHANNELS 3 Zrotation Yrotation Xrotation
				JOINT RightFoot
				{
					OFFSET -2.568260 -7.056230 0.000000
					CHANNELS 3 Zrotation Yrotation Xrotation
					JOINT RightToeBase
					{
						OFFSET -0.164730 -0.452590 2.363150
						CHANNELS 3 Zrotation Yrotation Xrotation
						End Site
						{
							OFFSET 0.000000 0.000000 0.000000
						}
					}
				}
			}
		}
	}
	JOINT LowerBack
	{
		OFFSET 0.000000 0.000000 0.000000
		CHANNELS 3 Zrotation Yrotation Xrotation
		JOINT Spine
		{
			OFFSET 0.028270 2.035590 -0.193380
			CHANNELS 3 Zrotation Yrotation Xrotation
			JOINT Spine1
			{
				OFFSET 0.056720 2.048850 -0.042750
				CHANNELS 3 Zrotation Yrotation Xrotation
				JOINT Neck
				{
					OFFSET 0.000000 0.000000 0.000000
					CHANNELS 3 Zrotation Yrotation Xrotation
					JOINT Neck1
					{
						OFFSET -0.054170 1.746240 0.172020
						CHANNELS 3 Zrotation Yrotation Xrotation
						JOINT Head
						{
							OFFSET 0.104070 1.761360 -0.123970
							CHANNELS 3 Zrotation Yrotation Xrotation
							End Site
							{
								OFFSET 0.000000 0.000000 0.000000
							}
						}
					}
				}
				JOINT LeftShoulder
				{
					OFFSET 0.000000 0.000000 0.000000
					CHANNELS 3 Zrotation Yrotation Xrotation
					JOINT LeftArm
					{
						OFFSET 3.362410 1.200890 -0.311210
						CHANNELS 3 Zrotation Yrotation Xrotation
						JOINT LeftForeArm
						{
							OFFSET 4.983000 -0.000000 -0.000000
							CHANNELS 3 Zrotation Yrotation Xrotation
							JOINT LeftHand
							{
								OFFSET 3.483560 -0.000000 -0.000000
								CHANNELS 3 Zrotation Yrotation Xrotation
								JOINT LeftFingerBase
								{
									OFFSET 0.000000 0.000000 0.000000
									CHANNELS 3 Zrotation Yrotation Xrotation
									JOINT LeftHandIndex1
									{
										OFFSET 0.715260 -0.000000 -0.000000
										CHANNELS 3 Zrotation Yrotation Xrotation
										End Site
										{
											OFFSET 0.000000 0.000000 0.000000
										}
									}
								}
								JOINT LThumb
								{
									OFFSET 0.000000 0.000000 0.000000
									CHANNELS 3 Zrotation Yrotation Xrotation
									End Site
									{
										OFFSET 0.000000 0.000000 0.000000
									}
								}
							}
						}
					}
				}
				JOINT RightShoulder
				{
					OFFSET 0.000000 0.000000 0.000000
					CHANNELS 3 Zrotation Yrotation Xrotation
					JOINT RightArm
					{
						OFFSET -3.136600 1.374050 -0.404650
						CHANNELS 3 Zrotation Yrotation Xrotation
						JOINT RightForeArm
						{
							OFFSET -5.241900 -0.000000 -0.000000
							CHANNELS 3 Zrotation Yrotation Xrotation
							JOINT RightHand
							{
								OFFSET -3.444170 -0.000000 -0.000000
								CHANNELS 3 Zrotation Yrotation Xrotation
								JOINT RightFingerBase
								{
									OFFSET 0.000000 0.000000 0.000000
									CHANNELS 3 Zrotation Yrotation Xrotation
									JOINT RightHandIndex1
									{
										OFFSET -0.622530 -0.000000 -0.000000
										CHANNELS 3 Zrotation Yrotation Xrotation
										End Site
										{
											OFFSET 0.000000 0.000000 0.000000
										}
									}
								}
								JOINT RThumb
								{
									OFFSET 0.000000 0.000000 0.000000
									CHANNELS 3 Zrotation Yrotation Xrotation
									End Site
									{
										OFFSET 0.000000 0.000000 0.000000
									}
								}
							}
						}
					}
				}
			}
		}
	}
}
MOTION
Frames: 6
Frame Time: 0.008333
1.009292 17.641127 -3.043770 160.884326 68.337703 -178.240360 -9.686190 -0.679410 1.217240 -6.297966 -12.006825 -31.459359 -1.630428 0.421393 19.413124 1.267240 7.667012 -0.683995 1.140200 -0.000001 -31.249800 8.017627 -0.345138 -1.103810 10.303688 6.102705 -14.568420 2.042124 -0.107052 13.262832 -0.850331 -2.623385 -6.118122 -0.356700 -0.000000 -10.889900 2.050500 0.364577 2.732312 -0.151802 0.270328 -2.195229 -4.675463 0.288966 -0.283471 12.653418 6.410574 7.967367 -2.894509 -0.362653 3.867003 0.000000 0.000000 0.000000 -4.176566 -5.857962 0.248505 -61.147285 -26.738663 14.140595 -1.293835 -63.276172 -0.028423 6.497704 -4.269314 -0.268648 -0.151161 0.379005 0.000000 0.000000 0.000000 0.000000 0.000000 0.000000 0.000000 14.626752 6.624489 -0.169490 60.212425 46.119641 5.077949 1.366352 33.829539 -0.006174 -0.585979 9.703890 -0.048808 -0.023586 -0.274990 -0.000000 0.000000 0.000000 0.000000 0.000000 0.000000 0.000000 
1.094053 17.647572 -3.047429 161.003735 68.654353 -178.221411 -9.655283 -0.702989 1.222161 -6.441342 -11.849401 -31.740851 -1.667472 0.377197 18.790653 1.243707 7.535036 -0.502144 1.158100 -0.000001 -31.365200 8.005117 -0.389596 -1.112462 10.509126 6.169645 -13.987805 2.070745 -0.094968 12.937668 -0.792995 -2.415500 -5.794237 -0.366701 0.000000 -11.092300 2.008917 0.415694 2.728335 -0.167443 0.323161 -2.198575 -4.691771 0.343223 -0.290231 12.655685 6.349036 7.940388 -2.890283 -0.362531 3.859535 0.000000 0.000000 0.000000 -4.219772 -5.742217 0.280856 -61.082832 -26.303976 14.349669 -1.307509 -63.233200 -0.027271 6.401654 -4.253058 -0.263439 -0.151164 0.374048 0.000000 0.000000 0.000000 0.000000 0.000000 0.000000 0.000000 14.587865 6.656392 -0.226949 60.469648 46.443346 5.503972 1.332959 34.266066 -0.006542 -0.593134 9.686088 -0.049210 -0.025372 -0.278590 -0.000000 0.000000 0.000000 0.000000 0.000000 0.000000 0.000000 
1.179843 17.653510 -3.051120 161.089524 68.975166 -178.223840 -9.621665 -0.724223 1.230644 -6.598962 -11.711396 -32.046006 -1.708079 0.334956 18.196046 1.211506 7.349154 -0.308640 1.168900 -0.000000 -31.499900 7.996304 -0.431785 -1.119744 10.695338 6.225876 -13.405818 2.099842 -0.080235 12.592165 -0.733338 -2.189227 -5.478567 -0.372500 -0.000000 -11.297200 1.953624 0.463056 2.720467 -0.186680 0.372855 -2.201744 -4.711840 0.394213 -0.290633 12.669941 6.281149 7.911578 -2.889256 -0.362488 3.851173 0.000000 0.000000 0.000000 -4.266738 -5.611948 0.316932 -61.021758 -25.838693 14.579730 -1.326450 -63.116311 -0.026134 6.324366 -4.235529 -0.259032 -0.151604 0.368267 0.000000 0.000000 0.000000 0.000000 0.000000 0.000000 0.000000 14.574465 6.675664 -0.290108 60.769104 46.728774 5.983184 1.304741 34.716711 -0.006877 -0.602042 9.679953 -0.049912 -0.026909 -0.281824 -0.000000 0.000000 0.000000 0.000000 0.000000 0.000000 0.000000 
1.266493 17.658972 -3.054758 161.147931 69.299260 -178.248130 -9.585868 -0.744254 1.239322 -6.767885 -11.591958 -32.362919 -1.752060 0.294896 17.627581 1.171529 7.114030 -0.111594 1.171400 0.000001 -31.677901 7.989534 -0.471351 -1.127802 10.865351 6.279319 -12.805291 2.128602 -0.062747 12.214181 -0.672596 -1.955510 -5.156408 -0.376000 -0.000000 -11.538700 1.888491 0.506365 2.715930 -0.208659 0.419078 -2.204066 -4.735651 0.441594 -0.288155 12.695675 6.215842 7.883042 -2.890391 -0.362502 3.842505 0.000000 0.000000 0.000000 -4.320618 -5.473461 0.358454 -60.957577 -25.338925 14.824106 -1.350454 -62.929797 -0.024987 6.258391 -4.211751 -0.254724 -0.152332 0.361636 0.000000 0.000000 0.000000 0.000000 0.000000 0.000000 0.000000 14.582038 6.692957 -0.358540 61.112771 46.961221 6.486039 1.280110 35.197321 -0.007130 -0.595177 9.663673 -0.049114 -0.028464 -0.284603 -0.000000 0.000000 0.000000 0.000000 0.000000 0.000000 0.000000 
1.354235 17.663753 -3.058315 161.159302 69.622613 -178.305886 -9.545109 -0.761562 1.254816 -6.952012 -11.507009 -32.700878 -1.799478 0.255416 17.085523 1.126751 6.846540 0.074598 1.166400 0.000000 -31.857700 7.989284 -0.508133 -1.137422 11.008038 6.307234 -12.217061 2.157345 -0.045126 11.836937 -0.607151 -1.689475 -4.839358 -0.373800 0.000000 -11.794900 1.805741 0.544978 2.706770 -0.234801 0.461428 -2.206942 -4.762082 0.484891 -0.281250 12.731161 6.144907 7.851791 -2.893819 -0.362569 3.832860 0.000000 0.000000 0.000000 -4.377761 -5.326954 0.404022 -60.896350 -24.806408 15.080566 -1.379719 -62.669932 -0.023791 6.194889 -4.180926 -0.250017 -0.153192 0.354153 0.000000 0.000000 0.000000 0.000000 0.000000 0.000000 0.000000 14.609628 6.699696 -0.431601 61.502709 47.150291 7.033226 1.260720 35.689898 -0.007349 -0.588964 9.661894 -0.048416 -0.029771 -0.287080 -0.000000 0.000000 0.000000 0.000000 0.000000 0.000000 0.000000 
1.443036 17.667811 -3.061814 161.127839 69.946229 -178.392599 -9.499337 -0.776921 1.277409 -7.146362 -11.458518 -33.057503 -1.849749 0.215677 16.566605 1.079128 6.557436 0.237970 1.153700 0.000001 -32.030000 7.994980 -0.542489 -1.149261 11.125890 6.310542 -11.646989 2.185939 -0.028383 11.469390 -0.537275 -1.391900 -4.525603 -0.365801 0.000000 -12.057900 1.708470 0.579950 2.693344 -0.264509 0.500804 -2.210063 -4.791151 0.525027 -0.268994 12.774028 6.063182 7.815241 -2.900000 -0.362684 3.821566 0.000000 0.000000 0.000000 -4.440713 -5.170801 0.453605 -60.837893 -24.249238 15.348275 -1.414629 -62.332765 -0.022512 6.125883 -4.141942 -0.244710 -0.154058 0.345826 0.000000 0.000000 0.000000 0.000000 0.000000 0.000000 0.000000 14.657098 6.691196 -0.508342 61.935806 47.302069 7.630062 1.246951 36.189595 -0.007537 -0.587424 9.675996 -0.048318 -0.030747 -0.289278 -0.000000 0.000000 0.000000 0.000000 0.000000 0.000000 0.000000 
